{
  "accessors": [
    {
      "bufferView": 2,
      "componentType": 5126,
      "count": 1448,
      "max": [
        0.28806972503662109,
        0.14197534322738647,
        -0.033176422119140625
      ],
      "min": [
        0.10700130462646484,
        -0.24467307329177856,
        -0.41904973983764648
      ],
      "type": "VEC3"
    },
    {
      "bufferView": 2,
      "byteOffset": 17376,
      "componentType": 5126,
      "count": 1448,
      "max": [
        0.89694023132324219,
        0.99408841133117676,
        0.93974238634109497
      ],
      "min": [
        -0.89701235294342041,
        -0.99357688426971436,
        -0.93716424703598022
      ],
      "type": "VEC3"
    },
    {
      "bufferView": 3,
      "componentType": 5126,
      "count": 1448,
      "max": [
        0.94152039289474487,
        0.96934598684310913,
        0.99970227479934692,
        -1
      ],
      "min": [
        -0.9922681450843811,
        -0.97422844171524048,
        -0.99906837940216064,
        -1
      ],
      "type": "VEC4"
    },
    {
      "bufferView": 1,
      "componentType": 5126,
      "count": 1448,
      "max": [
        4.8536672592163086,
        4.8536672592163086
      ],
      "min": [
        -3.8536672592163086,
        -3.8536672592163086
      ],
      "type": "VEC2"
    },
    {
      "bufferView": 0,
      "componentType": 5125,
      "count": 4272,
      "max": [
        1447
      ],
      "min": [
        0
      ],
      "type": "SCALAR"
    },
    {
      "bufferView": 2,
      "byteOffset": 34752,
      "componentType": 5126,
      "count": 15601,
      "max": [
        0.32201099395751953,
        0.27834516763687134,
        0.0016193389892578125
      ],
      "min": [
        -0.26127529144287109,
        -0.25272974371910095,
        -0.46678304672241211
      ],
      "type": "VEC3"
    },
    {
      "bufferView": 2,
      "byteOffset": 221964,
      "componentType": 5126,
      "count": 15601,
      "max": [
        0.99987554550170898,
        0.99963366985321045,
        0.99902266263961792
      ],
      "min": [
        -0.99987673759460449,
        -0.99963533878326416,
        -0.99902784824371338
      ],
      "type": "VEC3"
    },
    {
      "bufferView": 3,
      "byteOffset": 23168,
      "componentType": 5126,
      "count": 15601,
      "max": [
        0.99904608726501465,
        0.97384732961654663,
        0.9967617392539978,
        -1
      ],
      "min": [
        -0.99803251028060913,
        -0.99789363145828247,
        -0.99209558963775635,
        -1
      ],
      "type": "VEC4"
    },
    {
      "bufferView": 1,
      "byteOffset": 11584,
      "componentType": 5126,
      "count": 15601,
      "max": [
        5.9187102317810059,
        5.9187102317810059
      ],
      "min": [
        -4.9187102317810059,
        -4.9187102317810059
      ],
      "type": "VEC2"
    },
    {
      "bufferView": 0,
      "byteOffset": 17088,
      "componentType": 5125,
      "count": 60096,
      "max": [
        15600
      ],
      "min": [
        0
      ],
      "type": "SCALAR"
    },
    {
      "bufferView": 2,
      "byteOffset": 409176,
      "componentType": 5126,
      "count": 6556,
      "max": [
        1.3370307683944702,
        1.203203558921814,
        0.98501819372177124
      ],
      "min": [
        -1.2096855640411377,
        -1.0924006700515747,
        -0.99539953470230103
      ],
      "type": "VEC3"
    },
    {
      "bufferView": 2,
      "byteOffset": 487848,
      "componentType": 5126,
      "count": 6556,
      "max": [
        0.99961948394775391,
        0.99990969896316528,
        0.99999904632568359
      ],
      "min": [
        -0.99969112873077393,
        -0.99974191188812256,
        -0.99993211030960083
      ],
      "type": "VEC3"
    },
    {
      "bufferView": 3,
      "byteOffset": 272784,
      "componentType": 5126,
      "count": 6556,
      "max": [
        0.80254900455474854,
        0.92227673530578613,
        0.99965053796768188,
        -1
      ],
      "min": [
        -0.72646695375442505,
        -0.94861829280853271,
        -0.99961745738983154,
        -1
      ],
      "type": "VEC4"
    },
    {
      "bufferView": 1,
      "byteOffset": 136392,
      "componentType": 5126,
      "count": 6556,
      "max": [
        6.6853322982788086,
        6.6853322982788086
      ],
      "min": [
        -5.6853322982788086,
        -5.6853322982788086
      ],
      "type": "VEC2"
    },
    {
      "bufferView": 0,
      "byteOffset": 257472,
      "componentType": 5125,
      "count": 36864,
      "max": [
        6555
      ],
      "min": [
        0
      ],
      "type": "SCALAR"
    },
    {
      "bufferView": 2,
      "byteOffset": 566520,
      "componentType": 5126,
      "count": 3924,
      "max": [
        0.021170258522033691,
        0.0031995773315429688,
        0.026846468448638916
      ],
      "min": [
        -0.02241063117980957,
        -0.003200531005859375,
        -0.029025793075561523
      ],
      "type": "VEC3"
    },
    {
      "bufferView": 2,
      "byteOffset": 613608,
      "componentType": 5126,
      "count": 3924,
      "max": [
        1,
        1,
        0.99997711181640625
      ],
      "min": [
        -1,
        -1,
        -1
      ],
      "type": "VEC3"
    },
    {
      "bufferView": 3,
      "byteOffset": 377680,
      "componentType": 5126,
      "count": 3924,
      "max": [
        1,
        0.98926335573196411,
        0.87990212440490723,
        1
      ],
      "min": [
        -1,
        -1,
        -0.92206460237503052,
        -1
      ],
      "type": "VEC4"
    },
    {
      "bufferView": 1,
      "byteOffset": 188840,
      "componentType": 5126,
      "count": 3924,
      "max": [
        1,
        1
      ],
      "min": [
        8.2153519542771392e-06,
        0.011363744735717773
      ],
      "type": "VEC2"
    },
    {
      "bufferView": 0,
      "byteOffset": 404928,
      "componentType": 5125,
      "count": 15252,
      "max": [
        3923
      ],
      "min": [
        0
      ],
      "type": "SCALAR"
    },
    {
      "bufferView": 2,
      "byteOffset": 660696,
      "componentType": 5126,
      "count": 4383,
      "max": [
        0.020344913005828857,
        0.0032036304473876953,
        0.028868556022644043
      ],
      "min": [
        -0.023191154003143311,
        -0.0031964778900146484,
        -0.025989949703216553
      ],
      "type": "VEC3"
    },
    {
      "bufferView": 2,
      "byteOffset": 713292,
      "componentType": 5126,
      "count": 4383,
      "max": [
        0.99999940395355225,
        1,
        0.9999992847442627
      ],
      "min": [
        -0.9999995231628418,
        -1,
        -0.99999862909317017
      ],
      "type": "VEC3"
    },
    {
      "bufferView": 3,
      "byteOffset": 440464,
      "componentType": 5126,
      "count": 4383,
      "max": [
        0.83917504549026489,
        1,
        0.82799166440963745,
        1
      ],
      "min": [
        -1,
        -0.99999988079071045,
        -0.84103351831436157,
        -1
      ],
      "type": "VEC4"
    },
    {
      "bufferView": 1,
      "byteOffset": 220232,
      "componentType": 5126,
      "count": 4383,
      "max": [
        0.99326878786087036,
        1
      ],
      "min": [
        8.2153519542771392e-06,
        0.0042456984519958496
      ],
      "type": "VEC2"
    },
    {
      "bufferView": 0,
      "byteOffset": 465936,
      "componentType": 5125,
      "count": 16986,
      "max": [
        4382
      ],
      "min": [
        0
      ],
      "type": "SCALAR"
    },
    {
      "bufferView": 2,
      "byteOffset": 765888,
      "componentType": 5126,
      "count": 7102,
      "max": [
        0.022397816181182861,
        0.0031714439392089844,
        0.039714932441711426
      ],
      "min": [
        -0.024290025234222412,
        -0.0032286643981933594,
        -0.028370499610900879
      ],
      "type": "VEC3"
    },
    {
      "bufferView": 2,
      "byteOffset": 851112,
      "componentType": 5126,
      "count": 7102,
      "max": [
        0.9983823299407959,
        1,
        1
      ],
      "min": [
        -0.9999997615814209,
        -1,
        -1
      ],
      "type": "VEC3"
    },
    {
      "bufferView": 3,
      "byteOffset": 510592,
      "componentType": 5126,
      "count": 7102,
      "max": [
        1,
        1,
        0.9987034797668457,
        1
      ],
      "min": [
        -1,
        -1,
        -0.9999997615814209,
        -1
      ],
      "type": "VEC4"
    },
    {
      "bufferView": 1,
      "byteOffset": 255296,
      "componentType": 5126,
      "count": 7102,
      "max": [
        0.99326592683792114,
        1
      ],
      "min": [
        0,
        5.9604644775390625e-08
      ],
      "type": "VEC2"
    },
    {
      "bufferView": 0,
      "byteOffset": 533880,
      "componentType": 5125,
      "count": 27132,
      "max": [
        7101
      ],
      "min": [
        0
      ],
      "type": "SCALAR"
    },
    {
      "bufferView": 2,
      "byteOffset": 936336,
      "componentType": 5126,
      "count": 1258,
      "max": [
        0.021562099456787109,
        0.0032091140747070312,
        0.042188048362731934
      ],
      "min": [
        -0.017785429954528809,
        -0.0031909942626953125,
        -0.012670516967773438
      ],
      "type": "VEC3"
    },
    {
      "bufferView": 2,
      "byteOffset": 951432,
      "componentType": 5126,
      "count": 1258,
      "max": [
        0.99999970197677612,
        1,
        0.99999964237213135
      ],
      "min": [
        -0.99999970197677612,
        -1,
        -0.99999970197677612
      ],
      "type": "VEC3"
    },
    {
      "bufferView": 3,
      "byteOffset": 624224,
      "componentType": 5126,
      "count": 1258,
      "max": [
        1,
        0.9999997615814209,
        1,
        1
      ],
      "min": [
        -1,
        -0.9999997615814209,
        -1,
        -1
      ],
      "type": "VEC4"
    },
    {
      "bufferView": 1,
      "byteOffset": 312112,
      "componentType": 5126,
      "count": 1258,
      "max": [
        0.96770352125167847,
        1
      ],
      "min": [
        0.0011159863788634539,
        0.0038870573043823242
      ],
      "type": "VEC2"
    },
    {
      "bufferView": 0,
      "byteOffset": 642408,
      "componentType": 5125,
      "count": 4656,
      "max": [
        1257
      ],
      "min": [
        0
      ],
      "type": "SCALAR"
    },
    {
      "bufferView": 2,
      "byteOffset": 966528,
      "componentType": 5126,
      "count": 5336,
      "max": [
        0.022267341613769531,
        0.00322723388671875,
        0.028284132480621338
      ],
      "min": [
        -0.019599258899688721,
        -0.0031728744506835938,
        -0.028463959693908691
      ],
      "type": "VEC3"
    },
    {
      "bufferView": 2,
      "byteOffset": 1030560,
      "componentType": 5126,
      "count": 5336,
      "max": [
        0.99994063377380371,
        1,
        0.99999964237213135
      ],
      "min": [
        -0.99998748302459717,
        -1,
        -0.99999630451202393
      ],
      "type": "VEC3"
    },
    {
      "bufferView": 3,
      "byteOffset": 644352,
      "componentType": 5126,
      "count": 5336,
      "max": [
        0.81324046850204468,
        1,
        0.9997449517250061,
        -1
      ],
      "min": [
        -0.99647074937820435,
        -1,
        -0.81484156847000122,
        -1
      ],
      "type": "VEC4"
    },
    {
      "bufferView": 1,
      "byteOffset": 322176,
      "componentType": 5126,
      "count": 5336,
      "max": [
        1,
        1
      ],
      "min": [
        0.00011416184861445799,
        0.006730198860168457
      ],
      "type": "VEC2"
    },
    {
      "bufferView": 0,
      "byteOffset": 661032,
      "componentType": 5125,
      "count": 20724,
      "max": [
        5335
      ],
      "min": [
        0
      ],
      "type": "SCALAR"
    }
  ],
  "asset": {
    "extras": {
      "author": "katsu_stones (https://sketchfab.com/katsu_stones)",
      "license": "CC-BY-4.0 (http://creativecommons.org/licenses/by/4.0/)",
      "source": "https://sketchfab.com/3d-models/katsu-sewn-stone-macadamia-d1fca93c7a734820a6796000364d32eb",
      "title": "KATSU sewn stone \"Macadamia\""
    },
    "generator": "Sketchfab-6.10.0",
    "version": "2.0"
  },
  "bufferViews": [
    {
      "buffer": 0,
      "byteLength": 743928,
      "byteOffset": 0,
      "name": "floatBufferViews",
      "target": 34963
    },
    {
      "buffer": 0,
      "byteLength": 364864,
      "byteOffset": 743928,
      "byteStride": 8,
      "name": "floatBufferViews",
      "target": 34962
    },
    {
      "buffer": 0,
      "byteLength": 1094592,
      "byteOffset": 1108792,
      "byteStride": 12,
      "name": "floatBufferViews",
      "target": 34962
    },
    {
      "buffer": 0,
      "byteLength": 729728,
      "byteOffset": 2203384,
      "byteStride": 16,
      "name": "floatBufferViews",
      "target": 34962
    }
  ],
  "buffers": [
    {
      "byteLength": 2933112,
      "uri": "scene.bin"
    }
  ],
  "images": [
    {
      "uri": "textures/Material.002_baseColor.png"
    },
    {
      "uri": "textures/Material.001_baseColor.png"
    }
  ],
  "materials": [
    {
      "doubleSided": true,
      "emissiveFactor": [
        0,
        0,
        0
      ],
      "name": "Material.002",
      "pbrMetallicRoughness": {
        "baseColorFactor": [
          1,
          1,
          1,
          1
        ],
        "baseColorTexture": {
          "index": 0,
          "texCoord": 0
        },
        "metallicFactor": 0,
        "roughnessFactor": 1
      }
    },
    {
      "doubleSided": true,
      "emissiveFactor": [
        0,
        0,
        0
      ],
      "name": "Material.001",
      "pbrMetallicRoughness": {
        "baseColorFactor": [
          1,
          1,
          1,
          1
        ],
        "baseColorTexture": {
          "index": 1,
          "texCoord": 0
        },
        "metallicFactor": 0,
        "roughnessFactor": 0.79439786590000006
      }
    },
    {
      "doubleSided": true,
      "emissiveFactor": [
        0,
        0,
        0
      ],
      "name": "SVGMat.002",
      "pbrMetallicRoughness": {
        "baseColorFactor": [
          0.23944218220440913,
          0.23944218220440913,
          0.23944218220440913,
          1
        ],
        "metallicFactor": 0,
        "roughnessFactor": 1
      }
    }
  ],
  "meshes": [
    {
      "primitives": [
        {
          "attributes": {
            "NORMAL": 1,
            "POSITION": 0,
            "TANGENT": 2,
            "TEXCOORD_0": 3
          },
          "indices": 4,
          "material": 0,
          "mode": 4
        }
      ]
    },
    {
      "primitives": [
        {
          "attributes": {
            "NORMAL": 6,
            "POSITION": 5,
            "TANGENT": 7,
            "TEXCOORD_0": 8
          },
          "indices": 9,
          "material": 0,
          "mode": 4
        }
      ]
    },
    {
      "primitives": [
        {
          "attributes": {
            "NORMAL": 11,
            "POSITION": 10,
            "TANGENT": 12,
            "TEXCOORD_0": 13
          },
          "indices": 14,
          "material": 1,
          "mode": 4
        }
      ]
    },
    {
      "primitives": [
        {
          "attributes": {
            "NORMAL": 16,
            "POSITION": 15,
            "TANGENT": 17,
            "TEXCOORD_0": 18
          },
          "indices": 19,
          "material": 2,
          "mode": 4
        }
      ]
    },
    {
      "primitives": [
        {
          "attributes": {
            "NORMAL": 21,
            "POSITION": 20,
            "TANGENT": 22,
            "TEXCOORD_0": 23
          },
          "indices": 24,
          "material": 2,
          "mode": 4
        }
      ]
    },
    {
      "primitives": [
        {
          "attributes": {
            "NORMAL": 26,
            "POSITION": 25,
            "TANGENT": 27,
            "TEXCOORD_0": 28
          },
          "indices": 29,
          "material": 2,
          "mode": 4
        }
      ]
    },
    {
      "primitives": [
        {
          "attributes": {
            "NORMAL": 31,
            "POSITION": 30,
            "TANGENT": 32,
            "TEXCOORD_0": 33
          },
          "indices": 34,
          "material": 2,
          "mode": 4
        }
      ]
    },
    {
      "primitives": [
        {
          "attributes": {
            "NORMAL": 36,
            "POSITION": 35,
            "TANGENT": 37,
            "TEXCOORD_0": 38
          },
          "indices": 39,
          "material": 2,
          "mode": 4
        }
      ]
    }
  ],
  "nodes": [
    {
      "children": [
        1
      ],
      "name": "RootNode (gltf orientation matrix)",
      "rotation": [
        -0.70710678118654746,
        -0,
        -0,
        0.70710678118654757
      ]
    },
    {
      "children": [
        2
      ],
      "name": "RootNode (model correction matrix)"
    },
    {
      "children": [
        3
      ],
      "name": "root"
    },
    {
      "children": [
        4,
        6,
        8,
        10,
        12,
        14,
        16,
        18
      ],
      "matrix": [
        1,
        0,
        0,
        0,
        0,
        2.2204460492503131e-16,
        1,
        0,
        0,
        -1,
        2.2204460492503131e-16,
        0,
        0,
        0,
        0,
        1
      ],
      "name": "GLTF_SceneRootNode"
    },
    {
      "children": [
        5
      ],
      "matrix": [
        1,
        0,
        0,
        0,
        0,
        -1.685873969314855e-07,
        0.99999999999998579,
        0,
        0,
        -0.99999999999998579,
        -1.685873969314855e-07,
        0,
        0,
        0,
        0,
        1
      ],
      "name": "FlatStrap5_3"
    },
    {
      "mesh": 0,
      "name": ""
    },
    {
      "children": [
        7
      ],
      "matrix": [
        1,
        0,
        0,
        0,
        0,
        -1.685873969314855e-07,
        0.99999999999998579,
        0,
        0,
        -0.99999999999998579,
        -1.685873969314855e-07,
        0,
        0,
        0,
        0,
        1
      ],
      "name": "Straps5_4"
    },
    {
      "mesh": 1,
      "name": ""
    },
    {
      "children": [
        9
      ],
      "matrix": [
        0.2355210930109024,
        0,
        0,
        0,
        0,
        -1.9852945671992022e-08,
        0.23552112281322399,
        0,
        0,
        -0.23552112281322399,
        -1.9852945671992022e-08,
        0,
        0.0084590325132012367,
        0.23081074655056,
        0,
        1
      ],
      "name": "Cube_5"
    },
    {
      "mesh": 2,
      "name": ""
    },
    {
      "children": [
        11
      ],
      "matrix": [
        -0.086863616705797939,
        0.13189027985629617,
        -0.13958954237940355,
        0,
        0.12177216040871087,
        0.15629424072758974,
        0.071897369324643204,
        0,
        0.14849860451989644,
        -0.051016102891803687,
        -0.14060977360748056,
        0,
        0.22320251166820526,
        0.3650800883769989,
        0.059333756566047668,
        1
      ],
      "name": "Curve.001_6"
    },
    {
      "mesh": 3,
      "name": ""
    },
    {
      "children": [
        13
      ],
      "matrix": [
        -0.062575921839822454,
        0.15012873339527266,
        -0.13405669646105084,
        0,
        0.13195161911317987,
        0.13660799006462507,
        0.091392602079907695,
        0,
        0.15198225116877789,
        -0.056790852350155671,
        -0.13454283656158017,
        0,
        0.23913908004760742,
        0.33521279692649841,
        0.089586809277534485,
        1
      ],
      "name": "Curve.004_7"
    },
    {
      "mesh": 4,
      "name": ""
    },
    {
      "children": [
        15
      ],
      "matrix": [
        -0.06843121846827406,
        0.1461090702481169,
        -0.13562771036225008,
        0,
        0.12986414187085801,
        0.14146801876113727,
        0.08687752079572772,
        0,
        0.15125495863091212,
        -0.055358130348584493,
        -0.13595220346298517,
        0,
        0.2337859570980072,
        0.34371066093444824,
        0.083363182842731476,
        1
      ],
      "name": "Curve.005_8"
    },
    {
      "mesh": 5,
      "name": ""
    },
    {
      "children": [
        17
      ],
      "matrix": [
        -0.075789697784096818,
        0.14072754603838974,
        -0.13739458690183989,
        0,
        0.12692002519326825,
        0.14747589004162864,
        0.081041691702112742,
        0,
        0.15024250422610258,
        -0.053592988002155284,
        -0.13776993768723861,
        0,
        0.22997120022773743,
        0.35077238082885742,
        0.077040567994117737,
        1
      ],
      "name": "Curve.006_9"
    },
    {
      "mesh": 6,
      "name": ""
    },
    {
      "children": [
        19
      ],
      "matrix": [
        -0.081301464954651417,
        0.13644394331792845,
        -0.13855936019467166,
        0,
        0.12446945911124872,
        0.15189979508328491,
        0.076546670304984077,
        0,
        0.14940885934834539,
        -0.052298027368841246,
        -0.13916712806039011,
        0,
        0.22808238863945007,
        0.35713326930999756,
        0.067824408411979675,
        1
      ],
      "name": "Curve.007_10"
    },
    {
      "mesh": 7,
      "name": ""
    }
  ],
  "samplers": [
    {
      "magFilter": 9729,
      "minFilter": 9987,
      "wrapS": 10497,
      "wrapT": 10497
    }
  ],
  "scene": 0,
  "scenes": [
    {
      "name": "OSG_Scene",
      "nodes": [
        0
      ]
    }
  ],
  "textures": [
    {
      "sampler": 0,
      "source": 0
    },
    {
      "sampler": 0,
      "source": 1
    }
  ]
}

